<svg xmlns="http://www.w3.org/2000/svg" width="1000" height="500" viewBox="0 0 1000 500"><defs><marker id="arrow" markerWidth="10" markerHeight="7" refX="9" refY="3.5" orient="auto"><polygon points="0 0, 10 3.5, 0 7" fill="#64748b"/></marker></defs><rect width="1000" height="500" fill="#1a1a2e"/><text x="500" y="40" fill="#e2e8f0" font-size="20" font-weight="bold" text-anchor="middle" font-family="Arial">Auto Email Follow-up System — n8n Workflow</text><text x="500" y="62" fill="#64748b" font-size="12" text-anchor="middle" font-family="Arial">Intelligent email classification with priority-based automated responses</text><rect x="30" y="120" width="130" height="70" rx="12" fill="#1e293b" stroke="#06b6d4" stroke-width="2"/><text x="95" y="148" fill="#06b6d4" font-size="22" text-anchor="middle">⏰</text><text x="95" y="168" fill="#e2e8f0" font-size="11" font-weight="bold" text-anchor="middle" font-family="Arial">Schedule</text><text x="95" y="182" fill="#64748b" font-size="9" text-anchor="middle" font-family="Arial">Every 15 min</text><line x1="160" y1="155" x2="200" y2="155" stroke="#64748b" stroke-width="2" marker-end="url(#arrow)"/><rect x="200" y="120" width="130" height="70" rx="12" fill="#1e293b" stroke="#ef4444" stroke-width="2"/><text x="265" y="148" fill="#ef4444" font-size="20" text-anchor="middle">📨</text><text x="265" y="168" fill="#e2e8f0" font-size="11" font-weight="bold" text-anchor="middle" font-family="Arial">Get Emails</text><text x="265" y="182" fill="#64748b" font-size="9" text-anchor="middle" font-family="Arial">Gmail inbox</text><line x1="330" y1="155" x2="370" y2="155" stroke="#64748b" stroke-width="2" marker-end="url(#arrow)"/><rect x="370" y="120" width="130" height="70" rx="12" fill="#1e293b" stroke="#06b6d4" stroke-width="2"/><text x="435" y="148" fill="#06b6d4" font-size="20" text-anchor="middle">✏️</text><text x="435" y="168" fill="#e2e8f0" font-size="11" font-weight="bold" text-anchor="middle" font-family="Arial">Edit Fields</text><text x="435" y="182" fill="#64748b" font-size="9" text-anchor="middle" font-family="Arial">Extract data</text><line x1="500" y1="155" x2="540" y2="155" stroke="#64748b" stroke-width="2" marker-end="url(#arrow)"/><rect x="540" y="120" width="130" height="70" rx="12" fill="#1e293b" stroke="#f97316" stroke-width="2"/><text x="605" y="148" fill="#f97316" font-size="22" text-anchor="middle">🧠</text><text x="605" y="168" fill="#e2e8f0" font-size="11" font-weight="bold" text-anchor="middle" font-family="Arial">JS Classify</text><text x="605" y="182" fill="#64748b" font-size="9" text-anchor="middle" font-family="Arial">AI priority logic</text><line x1="670" y1="155" x2="710" y2="155" stroke="#64748b" stroke-width="2" marker-end="url(#arrow)"/><rect x="710" y="120" width="130" height="70" rx="12" fill="#1e293b" stroke="#8b5cf6" stroke-width="2"/><text x="775" y="148" fill="#8b5cf6" font-size="22" text-anchor="middle">❓</text><text x="775" y="168" fill="#e2e8f0" font-size="11" font-weight="bold" text-anchor="middle" font-family="Arial">If / Router</text><text x="775" y="182" fill="#64748b" font-size="9" text-anchor="middle" font-family="Arial">Priority route</text><line x1="775" y1="190" x2="775" y2="230" stroke="#64748b" stroke-width="2" marker-end="url(#arrow)"/><rect x="640" y="230" width="130" height="60" rx="10" fill="#1e293b" stroke="#ef4444" stroke-width="1"/><text x="705" y="255" fill="#ef4444" font-size="10" font-weight="bold" text-anchor="middle" font-family="Arial">URGENT Reply</text><text x="705" y="270" fill="#64748b" font-size="9" text-anchor="middle" font-family="Arial">+ Mark as read</text><rect x="785" y="230" width="130" height="60" rx="10" fill="#1e293b" stroke="#f97316" stroke-width="1"/><text x="850" y="255" fill="#f97316" font-size="10" font-weight="bold" text-anchor="middle" font-family="Arial">Question Reply</text><text x="850" y="270" fill="#64748b" font-size="9" text-anchor="middle" font-family="Arial">+ Mark as read</text><rect x="712" y="310" width="130" height="60" rx="10" fill="#1e293b" stroke="#22c55e" stroke-width="1"/><text x="777" y="335" fill="#22c55e" font-size="10" font-weight="bold" text-anchor="middle" font-family="Arial">Request Reply</text><text x="777" y="350" fill="#64748b" font-size="9" text-anchor="middle" font-family="Arial">+ Mark as read</text><rect x="30" y="390" width="190" height="50" rx="8" fill="#0f172a" stroke="#06b6d4" stroke-width="1"/><text x="125" y="412" fill="#06b6d4" font-size="11" font-weight="bold" text-anchor="middle" font-family="Arial">✓ Auto Classification</text><text x="125" y="427" fill="#64748b" font-size="9" text-anchor="middle" font-family="Arial">Urgent / Question / Request</text><rect x="240" y="390" width="190" height="50" rx="8" fill="#0f172a" stroke="#ef4444" stroke-width="1"/><text x="335" y="412" fill="#ef4444" font-size="11" font-weight="bold" text-anchor="middle" font-family="Arial">✓ Priority Routing</text><text x="335" y="427" fill="#64748b" font-size="9" text-anchor="middle" font-family="Arial">Smart response templates</text><rect x="450" y="390" width="190" height="50" rx="8" fill="#0f172a" stroke="#f97316" stroke-width="1"/><text x="545" y="412" fill="#f97316" font-size="11" font-weight="bold" text-anchor="middle" font-family="Arial">✓ Zero Manual Work</text><text x="545" y="427" fill="#64748b" font-size="9" text-anchor="middle" font-family="Arial">Fully automated responses</text><rect x="660" y="390" width="190" height="50" rx="8" fill="#0f172a" stroke="#22c55e" stroke-width="1"/><text x="755" y="412" fill="#22c55e" font-size="11" font-weight="bold" text-anchor="middle" font-family="Arial">✓ Inbox Management</text><text x="755" y="427" fill="#64748b" font-size="9" text-anchor="middle" font-family="Arial">Auto mark-as-read system</text><text x="500" y="460" fill="#334155" font-size="10" text-anchor="middle" font-family="Arial">Built with N8N • Gmail API • JavaScript • Priority-based routing logic</text><text x="500" y="480" fill="#1e3a5f" font-size="10" text-anchor="middle" font-family="Arial">github.com/Benbrika8/Auto-Email-Follow-up-System</text></svg>
